<?xml version="1.0" standalone="no"?>
<!DOCTYPE svg PUBLIC "-//W3C//DTD SVG 20010904//EN"
 "http://www.w3.org/TR/2001/REC-SVG-20010904/DTD/svg10.dtd">
<svg version="1.0" xmlns="http://www.w3.org/2000/svg"
 width="128.000000pt" height="128.000000pt" viewBox="0 0 128.000000 128.000000"
 preserveAspectRatio="xMidYMid meet">
<metadata>
Created by potrace 1.14, written by Peter Selinger 2001-2017
</metadata>
<g transform="translate(0.000000,128.000000) scale(0.100000,-0.100000)"
fill="#000000" stroke="none">
<path d="M783 1048 c-32 -51 -249 -396 -376 -596 l-90 -143 28 -29 c32 -34 65
-38 87 -12 9 9 98 145 198 302 101 157 207 323 237 369 30 46 52 90 49 97 -7
18 -66 54 -88 54 -10 0 -30 -19 -45 -42z"/>
<path d="M304 959 c-93 -59 -170 -113 -172 -119 -4 -12 126 -378 141 -397 5
-7 18 -13 29 -13 26 0 98 38 104 55 3 7 -18 77 -47 154 -29 78 -50 143 -48
144 2 2 57 36 122 76 65 41 121 79 123 86 8 20 -39 107 -62 115 -16 6 -57 -16
-190 -101z"/>
<path d="M888 892 c-26 -15 -50 -32 -52 -39 -3 -6 24 -80 60 -164 35 -83 64
-155 64 -160 0 -4 -65 -42 -145 -84 -80 -42 -145 -80 -145 -85 0 -18 42 -115
52 -121 6 -4 22 -3 37 1 46 13 412 200 417 213 4 11 -179 434 -194 448 -20 19
-51 15 -94 -9z"/>
</g>
</svg>
